# xmcd
#
# Track frame offsets:
#	150
#	13220
#	25902
#	40215
#	53572
#	67597
#	80185
#	95447
#	109840
#	123692
#	138297
#	148606
#	161745
#	178622
#	191012
#
# Disc length: 2746 seconds
#
# Revision: 0
# Processed by: cddbd v1.5.2PL0 Copyright (c) Steve Scherf et al.
# Submitted via: EasyCDDAExtractor 2011.3.0.0
#
DISCID=cf0ab80f
DTITLE=John Lee Hooker - High Octave Blues Series CD 2
DYEAR=2014
DGENRE=Blues
TTITLE0=Looking For Romance
TTITLE1=Bumble Bee Blues
TTITLE2=Whistle Done Blown
TTITLE3=Dirty Ground Hog Blues
TTITLE4=Dreaming Blues
TTITLE5=Leave My Wife Alone
TTITLE6=Anubody Seen My Baby
TTITLE7=Mean Old Train
TTITLE8=Low Down Midnite Boogie
TTITLE9=Greveyard Blues
TTITLE10=Feed Her All Night
TTITLE11=Need Loving
TTITLE12=Going Mad Blues
TTITLE13=Morning Blues
TTITLE14=Just Me and My Telephone
EXTD=
EXTT0=
EXTT1=
EXTT2=
EXTT3=
EXTT4=
EXTT5=
EXTT6=
EXTT7=
EXTT8=
EXTT9=
EXTT10=
EXTT11=
EXTT12=
EXTT13=
EXTT14=
PLAYORDER=
